inDegrees=no
num_controls=7
num_derivatives=13
num_iterations=109
num_multipliers=7
num_parameters=0
num_slacks=7
num_states=26
objective=0.497125
objective_accelerations=0.032360
objective_balance=0.003248
objective_effort=0.035054
objective_height=0.420974
objective_ligament=0.005489
solver_duration=1260.982081
status=Solve_Succeeded
success=true
DataType=double
version=3
OpenSimVersion=4.5
endheader
time	/jointset/ground_pelvis/pelvis_tilt/value	/jointset/ground_pelvis/pelvis_tx/value	/jointset/ground_pelvis/pelvis_ty/value	/jointset/hip_r/hip_flexion_r/value	/jointset/hip_r/hip_adduction_r/value	/jointset/hip_r/hip_rotation_r/value	/jointset/back/lumbar_extension/value	/jointset/patellofemoral_r/patellar_flexion_r/value	/jointset/knee_r/knee_flexion_r/value	/jointset/knee_r/knee_adduction_r/value	/jointset/knee_r/knee_rotation_r/value	/jointset/ankle_r/ankle_angle_r/value	/jointset/subtalar_r/subtalar_angle_r/value	/jointset/ground_pelvis/pelvis_tilt/speed	/jointset/ground_pelvis/pelvis_tx/speed	/jointset/ground_pelvis/pelvis_ty/speed	/jointset/hip_r/hip_flexion_r/speed	/jointset/hip_r/hip_adduction_r/speed	/jointset/hip_r/hip_rotation_r/speed	/jointset/back/lumbar_extension/speed	/jointset/patellofemoral_r/patellar_flexion_r/speed	/jointset/knee_r/knee_flexion_r/speed	/jointset/knee_r/knee_adduction_r/speed	/jointset/knee_r/knee_rotation_r/speed	/jointset/ankle_r/ankle_angle_r/speed	/jointset/subtalar_r/subtalar_angle_r/speed	/forceset/tau_hip_flexion_r	/forceset/tau_hip_adduction_r	/forceset/tau_hip_rotation_r	/forceset/tau_knee_flexion_r	/forceset/tau_ankle_angle_r	/forceset/tau_subtalar_angle_r	/forceset/tau_lumbar_extension	lambda_cid13_p0	lambda_cid14_p0	lambda_cid14_p1	lambda_cid14_p2	lambda_cid14_p3	lambda_cid14_p4	lambda_cid14_p5	/jointset/ground_pelvis/pelvis_tilt/accel	/jointset/ground_pelvis/pelvis_tx/accel	/jointset/ground_pelvis/pelvis_ty/accel	/jointset/hip_r/hip_flexion_r/accel	/jointset/hip_r/hip_adduction_r/accel	/jointset/hip_r/hip_rotation_r/accel	/jointset/back/lumbar_extension/accel	/jointset/patellofemoral_r/patellar_flexion_r/accel	/jointset/knee_r/knee_flexion_r/accel	/jointset/knee_r/knee_adduction_r/accel	/jointset/knee_r/knee_rotation_r/accel	/jointset/ankle_r/ankle_angle_r/accel	/jointset/subtalar_r/subtalar_angle_r/accel	gamma_cid13_p0	gamma_cid14_p0	gamma_cid14_p1	gamma_cid14_p2	gamma_cid14_p3	gamma_cid14_p4	gamma_cid14_p5
0.5	-0.09901718469733832	0.05184233859136732	0.8633873411159785	0.6942656758186879	-0.2301329510068028	-0.1328566686493525	-0.3179473445698305	0.6879593682532629	0.6879593682532957	0.04158487682800666	0.174198390874892	0.2636389361449603	0.0566270471542567	-0.2661480020224155	-0.08839507035944079	-0.3262169472606853	1.406089753442619	-0.007485788587952745	0.2561275255285748	-0.5993783583422096	1.661929217795898	1.661929217796091	-0.2788662019561267	-0.00118758429576112	0.6114905232237314	0.1646694158634928	-0.0758039718115531	-0.01855118123059405	0.008346331748034298	-0.3389395519012092	0.06184075412286526	-0.009965868643866312	0.1356297970671101	-32.00794565479274	-22.34160337568913	-4.309102491886652	-3.343107294318048	3.603902519327659	-670.7436770615986	59.98720443989355	0.06300257783456031	0.2752346226938204	-0.3431001507169859	-0.8586995988359404	-0.05410812308008146	-0.5541683756909038	1.296795820543057	-1.139733845857931	-1.139733845857987	0.3914050251004024	0.001937054339071622	-0.4751858139308345	-0.06579521136524245	-1.110956208036002e-07	-1.577735679828604e-07	5.51320249355608e-07	-1.241689841366755e-06	3.849501772101782e-08	-2.133724288645199e-07	8.572449359474835e-07
0.51	-0.1016750486918229	0.05097229382159773	0.8601087484134518	0.7082813506800156	-0.2302112655499601	-0.1303220889616082	-0.3238754957291753	0.7045191577129316	0.7045191577129263	0.03881810926719292	0.1741866278432616	0.2697289884943196	0.05826908461969112	-0.2653862782700415	-0.0856013567835287	-0.3294272127974093	1.396844939374746	-0.008179709875447975	0.2507920918522112	-0.5861650980581395	1.649793122440649	1.649793122440857	-0.2744563735593161	-0.00116691054811015	0.6064390512639746	0.1637069657236439	-0.08115189716303291	-0.01676030517764349	0.008998700219034048	-0.3416790285279394	0.05754422022197559	-0.009352499022329422	0.1405464610394224	-31.06148620873638	-23.86034912057173	-4.42370203468768	-3.193405183737283	4.166260813403704	-673.949478609808	59.78288627019079	0.08852230816963313	0.283327489491902	-0.2988758792239407	-0.9874313926755377	-0.07758543827490288	-0.5228635276601055	1.346607452748461	-1.285858684080351	-1.285858684078208	0.470421054995521	0.001632713168522752	-0.5322719690971917	-0.1162013864199386	-9.470102557462393e-08	-1.188279109761036e-07	5.937681296346847e-07	-9.461119267910087e-07	1.00314509626898e-08	-1.704155408690635e-07	7.530424953202173e-07
0.52	-0.104324142441935	0.05013056374047749	0.856800275830743	0.7221985655842832	-0.2302966295673191	-0.1278407901434472	-0.3296689110215975	0.7209505239583083	0.7209505239582558	0.03609636985195961	0.1741749715847352	0.2757660973076617	0.05990055128950249	-0.2643939531484287	-0.08273213262956862	-0.3321929232971024	1.386397762030366	-0.008895683430567566	0.245471351613809	-0.5724311849576847	1.636244574936521	1.636244574936743	-0.2698605728415421	-0.001166229672842421	0.6009018160202547	0.1625552567387856	-0.08649982251452726	-0.01496942912471445	0.009651068690033536	-0.3444185051546748	0.05324768632107862	-0.00873912940082399	0.1454631250117282	-30.10681725328581	-25.38340990738472	-4.536302187920151	-3.047169354223866	4.714658852810689	-677.2288852859994	59.6423889634524	0.1091228516823995	0.2903367383033542	-0.2541891433108112	-1.099172254137485	-0.05851857660496329	-0.5512296880986772	1.400926383820049	-1.422224275633834	-1.422224275633968	0.4285994892930574	-0.002061520137563421	-0.5723384707234975	-0.1036469803671269	-6.933737335502773e-08	-4.066245241632503e-08	7.612405095402026e-07	-3.688827042862151e-07	-5.802290762362829e-08	-7.840559969224895e-08	6.063507051876148e-07
0.53	-0.1069623100282027	0.04931781031080109	0.8534663943472597	0.7360056595417954	-0.2303888402273479	-0.1254141161481159	-0.3353225573513381	0.7372394546147631	0.7372394546147826	0.03341980279183202	0.1741639691578794	0.2817454850486092	0.06152014956005782	-0.2632059595150024	-0.07981401087895401	-0.3345049583283228	1.374831049046437	-0.009554867746279103	0.2399046649599825	-0.5582385059624848	1.621304294427766	1.621304294427971	-0.2653887190121175	-0.0010584491588014	0.5948848289395602	0.161320202673517	-0.09158208536951008	-0.0132842259323253	0.01032485108355232	-0.3474076740961455	0.04913651484975321	-0.008260495382715933	0.1501351796382902	-29.14628536480215	-26.86202079016078	-4.709543509066749	-2.879947800926449	5.325849054614626	-680.5642612491952	59.44766435750864	0.1286774813259922	0.2932125035659741	-0.2079544377673432	-1.213918077091341	-0.07082289500503848	-0.5532697208515808	1.437374911684026	-1.565508024481255	-1.565508024483677	0.4662126495467871	0.01357117428920446	-0.6300365671280004	-0.1399380839498726	-4.359742402555534e-08	4.21231831313276e-08	9.669056426233054e-07	2.384937343399398e-07	-1.334087953924596e-07	1.542061793955202e-08	4.896277659101869e-07
0.54	-0.1095875897057166	0.04853437062065581	0.8501117437625162	0.7496913869181427	-0.2304878836377533	-0.1230418853326679	-0.340832489640264	0.7533718668489308	0.7533718668490315	0.03078990113393924	0.1741533192035972	0.2876619713706723	0.06312609659709141	-0.2618163713954355	-0.07686938472334362	-0.3363467435491619	1.362124445799684	-0.01026223349999628	0.2345827156330703	-0.5436883767947173	1.604940890479617	1.604940890479806	-0.2605274923914954	-0.001095735160192239	0.5883215322434423	0.1598250100345231	-0.09666434822449357	-0.01159902273995446	0.01099863347711559	-0.3503968430376047	0.045025343378439	-0.007781861364582156	0.1548072342648492	-28.18063156623844	-28.34667145321022	-4.883089187920273	-2.713537563021811	5.936173575176406	-683.9928109572004	59.27986140528095	0.1494417489106096	0.2956376193024551	-0.1601391812345782	-1.327150306702149	-0.06815486420604312	-0.5022822227158015	1.472416418333619	-1.706848963512633	-1.706848963512616	0.5064740475325765	-0.03107482322391176	-0.6816003938082594	-0.1556746951121872	-1.744114597877317e-08	1.300205038570537e-07	1.214826587732673e-06	8.792245397386652e-07	-2.169061622568376e-07	1.11256332925806e-07	4.060618531108251e-07
0.55	-0.1121980767326925	0.0477805390359683	0.8467410227238078	0.7632446573529902	-0.2305937158896684	-0.1207240891598902	-0.3461949733688573	0.7693338721503025	0.7693338721501707	0.02820796082763989	0.1741428701308458	0.2935104896972998	0.06471665352728009	-0.2602445132756301	-0.0738880800078975	-0.3377174083135931	1.348339968711268	-0.01091006593250392	0.2290001151282634	-0.5287474358826285	1.587244719990196	1.587244719990203	-0.2558180916853764	-0.00100607655074649	0.5813124999900673	0.1582510320661508	-0.1016032961285168	-0.0101009934607909	0.01159691832081095	-0.3535847606185142	0.04139198208668809	-0.007278221716521243	0.1593835987497738	-27.21091056438969	-29.6716163412309	-5.013614812053159	-2.558780652097945	6.368002700333584	-687.3935096493994	59.20890098824504	0.1665489349777264	0.3006522384240845	-0.1134890361338314	-1.432528095054811	-0.06366618027595511	-0.582651298893577	1.514072883959268	-1.833317927569039	-1.833317927596453	0.4597844253387179	0.02743917972423239	-0.7210377435574478	-0.163204083526188	-4.771578232663475e-10	1.831732341216359e-07	1.356818398094701e-06	1.262536791227852e-06	-2.667826068155832e-07	1.683229639696805e-07	3.672404854911152e-07
0.5600000000000001	-0.1147917469601828	0.04705677556658683	0.8433590032550378	0.7766543966799196	-0.2307061402154219	-0.1184613994590584	-0.3514062196970669	0.7851124523795989	0.7851124523792289	0.02567443679703047	0.1741330082395323	0.2992868210809023	0.06629048173061891	-0.2584530114973262	-0.07085576166213665	-0.3386064295615095	1.333418224217113	-0.01158064826511	0.2235614212422347	-0.513440896718025	1.568255876064286	1.56825587606411	-0.2508442372517645	-0.0009782988734866604	0.5738841436384789	0.1564792646647215	-0.1065422440325448	-0.008602964181645512	0.01219520316457793	-0.3567726781994263	0.0377586207949315	-0.006774582068486188	0.1639599632346984	-26.238450014422	-31.00451670624252	-5.146682914744614	-2.402303782480097	6.811811929178806	-690.9147559526157	59.12577523093169	0.1933704806103857	0.3058403453653451	-0.06381047793163382	-1.554603787850008	-0.07270484422570844	-0.4735008989601524	1.545536068836621	-1.965383650810353	-1.965383650810402	0.5593647930311663	-0.04345100966108534	-0.7654652134510003	-0.1952325817235873	5.456082462710398e-09	1.946324558328465e-07	1.371695246759926e-06	1.336946778025601e-06	-2.763139446075712e-07	1.78866694282701e-07	3.82112572086986e-07
0.5700000000000001	-0.1173664840821583	0.04636351318768544	0.8399705054092985	0.7899094695379976	-0.2308252726954713	-0.1162528472235087	-0.3564627256387697	0.8006947945578705	0.8006947945576437	0.02319139121583778	0.1741233134981115	0.3049867879203352	0.06784575776282577	-0.2564627698395824	-0.06779523095699733	-0.3390118777942579	1.317423360074927	-0.01224541270559655	0.2181535127148995	-0.4978177411572022	1.548005155374577	1.548005155374527	-0.2457454471901341	-0.0009623531362708841	0.5660380778088107	0.1545474003193325	-0.1112941001340919	-0.006993274012890513	0.01267674092257087	-0.3598915357239185	0.03408521566873831	-0.006293733178782425	0.1683373714169882	-25.26481243888606	-32.34858679026264	-5.295766575484063	-2.238521447096059	7.323462240728598	-694.3318960981544	58.99757600083147	0.2066125553578763	0.3063255660528165	-0.01668576096371192	-1.647853928951437	-0.06296801007895339	-0.5736899234041032	1.577087869622463	-2.086028672922779	-2.086028672903759	0.4882920451788137	0.0241480856220384	-0.8048876651983697	-0.1960653716179581	8.32998657941475e-09	1.973029480116707e-07	1.366181065332782e-06	1.346120220211631e-06	-2.779967318463038e-07	1.807094411561196e-07	4.067264906609372e-07
0.58	-0.1199203664781608	0.04570088934242826	0.8365803983282283	0.8029994085143385	-0.2309509739731626	-0.1140982248919801	-0.3613617235108804	0.8160684070502756	0.8160684070501845	0.02075996472174116	0.1741137843581036	0.3106061520219767	0.06938093474944336	-0.2542820663017706	-0.06472805493329439	-0.3389282766277293	1.300391447870803	-0.01289440779082144	0.2127754404362047	-0.4819392827996815	1.526509938890008	1.526509938890086	-0.2405204198305048	-0.0009451785906919718	0.5577635960801977	0.1524594555470882	-0.1160459562356431	-0.005383583844152765	0.01315827868058413	-0.3630103932484122	0.03041181054253982	-0.005812884289105172	0.1727147795992783	-24.29177994679703	-33.70148875825814	-5.447988744062404	-2.072418503728402	7.850154147779399	-697.8819143260787	58.8526816861899	0.2314628566240627	0.3071694090780235	0.03399940192375606	-1.762013400237605	-0.06955097317335375	-0.467533649232073	1.596596628176318	-2.214282809782173	-2.214282809782051	0.584612252630941	-0.04320524798845384	-0.8511483932400027	-0.2264486670946519	7.219638940787756e-09	1.885276528925036e-07	1.334111123785343e-06	1.270334441507982e-06	-2.694581509226575e-07	1.712206747128477e-07	4.440274462295968e-07
0.59	-0.1224515111531742	0.04506894910596251	0.8331935752029523	0.8159139388930234	-0.2310831007897359	-0.1119972257542618	-0.3661007438724642	0.8312209732007146	0.8312209732007431	0.01838136926209218	0.1741044062544946	0.316140691731166	0.07089443989731917	-0.2519159131587945	-0.0616605627793191	-0.3383542863482322	1.282349017718101	-0.01352453419848618	0.2074071964909672	-0.4658320549283706	1.503807487899333	1.503807487899424	-0.2352053526373581	-0.000921800014368423	0.5490809389569923	0.1502227559845994	-0.1206148575466138	-0.003784938895105834	0.0135269207484724	-0.3661216037263055	0.02691237866710331	-0.005322496102843443	0.1769192645864047	-23.32132594385066	-34.99027466120258	-5.583965043624695	-1.909908570944833	8.333704360785303	-701.2988682177818	58.72876771224983	0.2438487782213682	0.3064006643872617	0.08144128517288279	-1.850179205191438	-0.05848760198488136	-0.5739905445251265	1.622696055034407	-2.327598052375636	-2.327598052373891	0.5041700302777129	0.02666726568389514	-0.8863711340268189	-0.2247523881682189	6.310589605231607e-09	1.794168264504909e-07	1.296504152842917e-06	1.192753155408218e-06	-2.600161373351124e-07	1.61043119487267e-07	4.767389117726667e-07
